HIERARCHY
ROOT pelvis
{
  OFFSET 0 100 0
  CHANNELS 6 Xposition Yposition Zposition Zrotation Xrotation Yrotation
  JOINT pelvis_right_femur
  {
    OFFSET -10.78128 -3.44521 -0.5502486
    CHANNELS 3 Zrotation Xrotation Yrotation
    JOINT right_femur_tibia
    {
      OFFSET -0.8047443 -44.0398 -0.1307829
      CHANNELS 3 Zrotation Xrotation Yrotation
      JOINT right_tibia_foot
      {
        OFFSET 3.006224 -47.83518 -5
        CHANNELS 3 Zrotation Xrotation Yrotation
        End Site
        {
          OFFSET 0 -5 15
        }
      }
    }
  }
  JOINT pelvis_left_femur
  {
    OFFSET 10.78128 -3.44521 -0.5502486
    CHANNELS 3 Zrotation Xrotation Yrotation
    JOINT left_femur_tibia
    {
      OFFSET 0.8047443 -44.0398 -0.1307829
      CHANNELS 3 Zrotation Xrotation Yrotation
      JOINT left_tibia_foot
      {
        OFFSET -4.370144 -48.10324 -4.275266
        CHANNELS 3 Zrotation Xrotation Yrotation
        End Site
        {
          OFFSET 0 -5 15
        }
      }
    }
  }
  JOINT pelvis_spine1
  {
    OFFSET 0 6.468898 -3.129235
    CHANNELS 3 Zrotation Xrotation Yrotation
    JOINT spine1
    {
      OFFSET 0 23.15396 4.99043
      CHANNELS 3 Zrotation Xrotation Yrotation
      JOINT spine2
      {
        OFFSET 0 20.79997 -5.064912
        CHANNELS 3 Zrotation Xrotation Yrotation
        JOINT neck
        {
          OFFSET 0 14.38658 9.616178
          CHANNELS 3 Zrotation Xrotation Yrotation
          End Site
          {
            OFFSET 0 20 0
          }
        }
      }
      JOINT right_manubrium
      {
        OFFSET -5.722621 16.35077 3.967754
        CHANNELS 3 Zrotation Xrotation Yrotation
        JOINT right_clavicle
        {
          OFFSET -13.16364 1.694482 -4.693211
          CHANNELS 3 Zrotation Xrotation Yrotation
          JOINT right_humerus
          {
            OFFSET -28.5034 -0.3100689 -2.792744
            CHANNELS 3 Zrotation Xrotation Yrotation
            JOINT right_radius
            {
              OFFSET -25.15693 0.02248979 -1.271978
              CHANNELS 3 Zrotation Xrotation Yrotation
              End Site
              {
                OFFSET -15 0 0
              }
            }
          }
        }
      }
      JOINT left_manubrium
      {
        OFFSET 5.722621 16.35077 3.967754
        CHANNELS 3 Zrotation Xrotation Yrotation
        JOINT left_clavicle
        {
          OFFSET 13.16364 1.694482 -4.693211
          CHANNELS 3 Zrotation Xrotation Yrotation
          JOINT left_humerus
          {
            OFFSET 29.39168 -1.063119 -2.237045
            CHANNELS 3 Zrotation Xrotation Yrotation
            JOINT left_radius
            {
              OFFSET 24.59957 -0.9528479 0.9047498
              CHANNELS 3 Zrotation Xrotation Yrotation
              End Site
              {
                OFFSET 15 -0 -0
              }
            }
          }
        }
      }
    }
  }
}
MOTION
Frames: 21
Frame Time: 0.0416666666667
0 103.5113 0 1.639179 -3.229593 0.1980752 0.9539129 -10.10764 6.771208 -0 40.20773 -0 -6.170605 -17.23286 -3.725181 -6.843535 12.22106 -24.58315 -0 5.348402 -0 -0.1436437 -18.79164 23.11696 -0.3242688 -2.116195 4.20595 0.08663782 8.103281 -7.500273 1.62416 21.97434 8.486851 5.497885 -22.08672 9.18997 6.404962 -18.22029 10.2294 90.04473 35.39653 -26.0099 -0 0 16.16193 -6.646988 8.916384 1.783387 7.440174 -21.7848 -3.253488 -99.7258 41.4047 27.0879 0 0 -26.33644 -8.629536 17.26571 27.63846
0.1596493 102.9307 1.143644 0.988221 -2.344901 0.1797852 1.918059 -12.7728 8.19285 -0 41.56799 -0 -5.732214 -16.92669 -4.577863 -6.334274 12.1759 -24.63574 -0 5.778711 -0 -1.748713 -19.69212 22.80852 -0.2432433 -2.124863 4.327352 -0.02478063 8.140142 -7.446411 1.630275 21.95144 8.517941 5.538629 -22.03965 9.21057 6.360379 -18.23238 10.18915 90.10162 35.64543 -25.99818 -0 0 16.15011 -6.789815 9.080256 1.779418 7.574115 -21.91149 -3.163157 -99.60307 41.31447 26.97688 0 0 -26.55739 -8.25699 17.31739 27.2807
0.2923981 102.1599 2.579042 0.133213 -1.558191 0.1118204 3.442421 -18.26316 7.652288 -0 38.69884 -0 -6.250346 -14.3749 -4.416119 -5.654617 12.45804 -23.39474 -0 6.173125 -0 -1.776022 -21.10958 21.96622 -0.4028647 -1.935912 4.277985 0.2135203 7.991484 -7.395607 1.510464 22.12432 8.435525 5.324565 -22.34163 9.155671 6.201711 -18.10708 10.27033 89.70946 36.03503 -25.25222 -0 0 15.66386 -7.329792 9.305245 2.356687 7.220509 -21.58484 -3.076198 -98.98737 40.72909 26.50888 0 0 -26.00503 -7.541154 17.21457 26.20796
0.4189369 101.2213 4.266261 -0.5172067 -0.8195302 0.02800725 4.59221 -22.52297 7.59666 -0 36.17829 -0 -6.378782 -12.45813 -4.43753 -5.139523 12.64907 -22.52874 -0 6.370166 -0 -2.188033 -22.3834 21.14795 -0.4478268 -1.840966 4.272262 0.2947365 7.922974 -7.371576 1.462935 22.17027 8.405383 5.250961 -22.44678 9.11459 6.113459 -18.05051 10.29887 89.5501 36.23739 -24.92294 -0 0 15.45214 -7.643018 9.457438 2.633719 7.0952 -21.48211 -3.013823 -98.66022 40.44844 26.25712 0 0 -25.86228 -7.251057 17.14964 25.78095
0.5514491 100.016 6.353388 -0.9737317 0.08577158 -0.01844934 5.524717 -26.97326 7.041991 -0 31.85187 -0 -6.477155 -10.1939 -4.085653 -4.843893 12.95194 -21.45451 -0 6.358045 -0 -1.891563 -23.66241 20.26194 -0.534326 -1.711192 4.216099 0.4420688 7.821112 -7.365306 1.401336 22.22959 8.352517 5.143863 -22.59053 9.0441 6.01579 -17.97039 10.35264 89.32487 36.39686 -24.50631 -0 0 15.17989 -8.011949 9.600749 3.001976 6.882883 -21.30908 -2.967696 -98.26784 40.11366 25.9582 0 0 -25.61358 -7.050083 17.039 25.40279
0.6916264 98.54435 8.897475 -1.236294 1.08418 0.01886725 6.137166 -30.79368 6.378216 -0 27.03082 -0 -6.444052 -8.063904 -3.643002 -4.737755 13.35213 -20.47854 -0 6.385779 -0 -1.569522 -24.79764 19.30778 -0.6247029 -1.588136 4.14182 0.5949553 7.723165 -7.37316 1.346457 22.27903 8.296733 5.04269 -22.71873 8.966824 5.934003 -17.89306 10.40985 89.11333 36.49273 -24.13437 -0 0 14.9308 -8.342432 9.712939 3.346359 6.667546 -21.13824 -2.941297 -97.91534 39.81777 25.68901 0 0 -25.36904 -6.962282 16.923 25.15685
0.834231 96.85408 11.98019 -1.352715 2.178264 0.1883785 6.481827 -33.91553 5.568553 -0 21.96045 -0 -6.369644 -6.024757 -3.117015 -4.784834 13.9264 -19.547 -0 6.789113 -0 -1.309603 -25.63666 18.21511 -0.7491598 -1.443945 4.034563 0.7964251 7.610612 -7.392254 1.280631 22.34344 8.2214 4.912877 -22.87306 8.868293 5.850579 -17.79927 10.48812 88.85152 36.5576 -23.69664 -0 0 14.6338 -8.711357 9.815823 3.758176 6.386548 -20.91492 -2.931212 -97.51408 39.46733 25.38203 0 0 -25.02901 -6.908747 16.77662 24.9088
0.9695453 95.06384 15.65868 -1.426861 3.245907 0.516807 6.678056 -35.97001 4.798623 -0 17.5204 -0 -6.338723 -4.264175 -2.656564 -4.870405 14.66455 -18.66629 -0 7.999172 -0 -1.511523 -25.92805 16.86699 -0.9002488 -1.285223 3.90744 1.032977 7.494448 -7.417948 1.205935 22.41989 8.129463 4.759858 -23.04308 8.751256 5.767512 -17.69321 10.58441 88.5483 36.60242 -23.20256 -0 0 14.29744 -9.120339 9.916109 4.22841 6.056516 -20.65443 -2.933857 -97.0663 39.05545 25.0372 0 0 -24.60991 -6.856027 16.60481 24.6286
1.085217 93.35157 19.97695 -1.578513 4.163309 1.005944 6.909857 -36.68104 4.240088 -0 14.42211 -0 -6.433642 -2.959455 -2.361876 -4.867227 15.47138 -17.76473 -0 10.49496 -0 -2.450168 -25.32567 15.14822 -1.071141 -1.111514 3.774108 1.29358 7.381751 -7.445149 1.122864 22.50336 8.021696 4.587353 -23.21855 8.611958 5.679995 -17.57606 10.69714 88.20324 36.64885 -22.64156 -0 0 13.9199 -9.602221 10.03594 4.769142 5.688988 -20.37118 -2.940335 -96.54963 38.55535 24.63573 0 0 -24.13071 -6.76764 16.40469 24.27927
1.17259 91.91865 24.94193 -1.912909 4.780859 1.614855 7.345755 -35.83819 4.040494 -0 13.20538 -0 -6.685538 -2.299936 -2.293131 -4.647439 16.07334 -16.75268 -0 14.69992 -0 -4.265226 -23.43921 13.0408 -1.237957 -0.9345581 3.663476 1.540907 7.28822 -7.465386 1.039987 22.57821 7.907239 4.415726 -23.36838 8.454511 5.58601 -17.46008 10.81395 87.8429 36.72302 -22.04264 -0 0 13.53239 -10.17092 10.20028 5.354905 5.329123 -20.10923 -2.936507 -95.97667 37.97693 24.18797 0 0 -23.66325 -6.620487 16.18819 23.86411
1.236607 90.92942 30.49759 -2.464478 4.958146 2.242316 8.036114 -33.43126 4.210191 -0 13.91522 -0 -7.062665 -2.364525 -2.411567 -4.137431 15.98882 -15.54659 -0 20.89677 -0 -6.742975 -19.97372 10.76258 -1.369978 -0.7682874 3.614788 1.724744 7.228739 -7.465231 0.9688269 22.62614 7.797954 4.271085 -23.45389 8.285849 5.478856 -17.36432 10.91638 87.496 36.86664 -21.43275 -0 0 13.18092 -10.85042 10.44578 5.953212 5.034334 -19.92311 -2.899762 -95.37151 37.34321 23.71933 0 0 -23.2989 -6.392212 15.97539 23.40025
1.301667 90.44103 36.49275 -3.120513 4.580844 2.719454 8.813218 -29.69999 4.554639 -0 15.87904 -0 -7.508106 -3.087656 -2.585236 -3.394033 14.60614 -14.13437 -0 29.06961 -0 -9.219194 -15.07541 8.818851 -1.436829 -0.6263247 3.67457 1.789962 7.213846 -7.425064 0.9211049 22.63078 7.706713 4.179689 -23.43767 8.115467 5.347432 -17.31379 10.98313 87.17611 37.1346 -20.81481 -0 0 12.92356 -11.68027 10.81888 6.536909 4.864209 -19.86524 -2.797873 -94.76746 36.67872 23.27127 0 0 -23.11937 -6.051571 15.792 22.90032
1.398721 90.38261 42.67218 -3.56996 3.587042 2.848741 9.276019 -24.99948 4.704011 -0 17.77348 -0 -8.030803 -4.402934 -2.688861 -2.67596 11.46403 -12.64835 -0 38.7534 -0 -10.77514 -9.715183 7.800479 -1.425461 -0.5131827 3.883277 1.700324 7.24496 -7.322413 0.9020732 22.58204 7.641503 4.155357 -23.29976 7.947563 5.178763 -17.33156 11.00143 86.84692 37.57622 -20.12635 -0 0 12.81252 -12.73706 11.37184 7.122457 4.853961 -19.95966 -2.592339 -94.18153 35.96535 22.88002 0 0 -23.13832 -5.549232 15.64994 22.33838
1.539438 90.62181 48.72825 -3.388767 2.022407 2.524082 8.934708 -19.53642 4.292635 -0 18.20646 -0 -8.683598 -6.373556 -2.714696 -2.3929 6.60486 -11.3535 -0 48.85042 -0 -10.78907 -5.570455 8.00051 -1.356773 -0.4206704 4.254823 1.463414 7.314461 -7.140618 0.90648 22.47952 7.599939 4.1887 -23.05002 7.776421 4.968702 -17.43217 10.97889 86.40349 38.18858 -19.23002 -0 0 12.88409 -14.12165 12.13655 7.787254 4.987637 -20.17499 -2.255913 -93.61164 35.12243 22.5711 0 0 -23.24755 -4.841666 15.52686 21.65441
1.710794 91.04227 54.43155 -2.362091 0.1400159 1.871891 7.616013 -13.40952 3.331453 -0 16.61136 -0 -9.239502 -8.760994 -2.65905 -2.759503 0.6045612 -10.3863 -0 57.52123 -0 -9.515806 -3.880727 9.185312 -1.2879 -0.3331145 4.758727 1.139236 7.4122 -6.879203 0.9221207 22.33862 7.565506 4.243879 -22.72691 7.591379 4.734148 -17.62163 10.94654 85.70613 38.86889 -17.97175 -0 0 13.15782 -15.8905 13.0783 8.632195 5.182779 -20.41234 -1.806354 -93.06899 34.05839 22.38227 0 0 -23.2198 -3.957062 15.36516 20.82621
1.891614 91.50016 59.7596 -0.827453 -1.635937 1.187334 5.846759 -7.102772 2.418511 -0 13.69046 -0 -9.052935 -10.52071 -2.360321 -3.317866 -5.834195 -9.415673 -0 62.51163 -0 -7.970272 -4.201051 10.79519 -1.279398 -0.2411118 5.327169 0.8085337 7.535739 -6.558209 0.94138 22.18814 7.516005 4.277182 -22.37519 7.393105 4.512561 -17.89963 10.94106 84.69001 39.43589 -16.31601 -0 0 13.63506 -17.96368 14.07888 9.685674 5.325117 -20.54869 -1.323867 -92.60726 32.77835 22.37461 0 0 -22.84055 -3.033763 15.10984 19.94686
2.063276 91.73064 64.86694 0.4796579 -3.059044 0.6529393 4.544641 -1.442681 2.147884 -0 10.78318 -0 -7.865324 -10.90795 -1.854245 -3.126514 -12.1019 -7.903517 -0 62.07232 -0 -6.896604 -5.014539 12.48341 -1.34902 -0.1486731 5.893482 0.5197525 7.689528 -6.207887 0.9669146 22.05148 7.443782 4.268394 -22.02255 7.20248 4.338808 -18.25487 10.97774 83.44245 39.74718 -14.41357 -0 0 14.29022 -20.13966 15.00568 10.85835 5.348049 -20.51965 -0.9045919 -92.28737 31.40742 22.58516 0 0 -22.07429 -2.234596 14.75237 19.16969
2.230646 91.4137 69.92065 1.047062 -4.156554 0.2393404 4.189503 3.239758 2.391191 -0 8.767147 -0 -6.335073 -10.90179 -1.522236 -1.754265 -17.59906 -5.867958 -0 55.87909 -0 -6.231341 -5.48231 14.27808 -1.469734 -0.06525625 6.427769 0.2723467 7.873464 -5.84757 1.002975 21.9344 7.362015 4.226759 -21.68081 7.047056 4.221794 -18.66755 11.04738 82.11827 39.77593 -12.46815 -0 0 15.08629 -22.23251 15.78843 12.02628 5.264027 -20.33884 -0.5935637 -92.13077 30.07868 22.9991 0 0 -21.03764 -1.620878 14.32011 18.56475
2.434595 90.37876 75.02705 0.902178 -4.794147 -0.1612683 4.486489 7.190445 2.606107 -0 7.732004 -0 -5.159426 -12.00056 -1.416785 0.2752862 -21.99658 -3.945205 -0 45.42937 -0 -5.746832 -5.67155 16.07362 -1.607494 0.004263888 6.92909 0.04845369 8.081311 -5.481286 1.046991 21.83386 7.286289 4.167561 -21.35774 6.939882 4.149393 -19.11854 11.13841 80.82433 39.55137 -10.59701 -0 0 15.99679 -24.14649 16.40266 13.11927 5.112853 -20.04135 -0.3879875 -92.12261 28.84791 23.57803 0 0 -19.84259 -1.163084 13.8314 18.09654
2.726011 88.70501 80.28669 0.3752624 -4.708907 -0.6186761 4.833604 10.59263 2.504602 -0 7.462041 -0 -4.456415 -14.32018 -1.230662 2.124957 -25.29252 -2.665231 -0 33.56141 -0 -5.438333 -5.734225 17.53812 -1.747859 0.06121087 7.389872 -0.1532609 8.310026 -5.118778 1.09393 21.74988 7.215879 4.093466 -21.05377 6.872644 4.110126 -19.58493 11.24953 79.63099 39.09515 -8.870503 -0 0 16.97873 -25.8414 16.8391 14.11385 4.909459 -19.65128 -0.2868482 -92.22023 27.72049 24.26084 0 0 -18.55276 -0.8456236 13.29008 17.73389
3.139486 86.63518 85.82094 -0.1796136 -4.000626 -1.14978 4.812188 13.46062 2.150368 -0 7.867046 -0 -4.030305 -16.74672 -0.8160302 3.225904 -27.47711 -2.158465 -0 23.23043 -0 -5.294204 -5.712544 18.52493 -1.893339 0.1081918 7.781368 -0.3161867 8.564185 -4.788733 1.144453 21.68728 7.138412 3.997343 -20.7554 6.830787 4.104309 -20.03147 11.38106 78.62499 38.44466 -7.396678 -0 0 17.93855 -27.29651 17.12455 14.98906 4.647665 -19.19866 -0.3095051 -92.35524 26.70783 24.94561 0 0 -17.24715 -0.7 12.71534 17.51163
